<svg xmlns="http://www.w3.org/2000/svg" viewBox="0 0 64 64" role="img" aria-label="Pinterest icon">
  <circle cx="32" cy="32" r="32" fill="#E60023"/>
  <path d="M33 14c-10.3 0-15.5 7.5-15.5 15.6 0 6.1 2.3 11.5 7.1 13.5.8.3 1.1.2 1.2-.6.1-.5.6-2.3.8-3 .1-.4.1-.6-.3-1.1-1-1.2-1.7-3-1.7-5.3 0-6.9 5.2-13.1 13.5-13.1 7.4 0 11.4 4.5 11.4 10.5 0 7.9-3.5 14.6-8.7 14.6-2.9 0-5.1-2.4-4.4-5.4.8-3.6 2.4-7.4 2.4-9.9 0-2.3-1.2-4.2-3.8-4.2-3 0-5.4 3.1-5.4 7.3 0 2.7.9 4.5.9 4.5l-3.5 14.9c-1 4.2-.2 9.4-.1 9.9.1.3.4.4.6.2.3-.3 4.1-5.1 5.4-9.8.4-1.3 2.1-8.1 2.1-8.1 1 2 4.1 3.8 7.3 3.8 9.6 0 16.1-8.7 16.1-20.3C51 22.2 43.6 14 33 14z" fill="#FFFFFF"/>
</svg>
