<svg xmlns="http://www.w3.org/2000/svg" viewBox="0 0 64 64" role="img" aria-label="WhatsApp icon">
  <circle cx="32" cy="32" r="32" fill="#25D366"/>
  <path d="M18 48l2.5-9A16.6 16.6 0 1 1 32.1 48a16.4 16.4 0 0 1-8-2.1L18 48z" fill="#FFFFFF"/>
  <path d="M40.7 35.7c-.4-.2-2.3-1.1-2.7-1.3-.4-.1-.6-.2-.9.2-.3.4-1 1.3-1.2 1.5-.2.2-.4.3-.8.1-.4-.2-1.8-.7-3.4-2.2-1.3-1.1-2.1-2.5-2.3-2.9-.2-.4 0-.6.2-.8.2-.2.4-.4.6-.7.2-.2.3-.4.4-.7.1-.2.1-.5 0-.7-.1-.2-.9-2.2-1.3-3-.3-.8-.6-.7-.9-.7h-.8c-.2 0-.6.1-.9.5-.3.4-1.1 1.1-1.1 2.8s1.2 3.2 1.3 3.4c.2.2 2.4 3.6 5.8 5.1 3.4 1.5 3.4 1 4 .9.6-.1 2.1-.9 2.4-1.8.3-.9.3-1.6.2-1.8-.1-.1-.4-.2-.8-.4z" fill="#25D366"/>
</svg>
